<?xml version="1.0" encoding="UTF-8" standalone="no"?>
<!DOCTYPE svg PUBLIC "-//W3C//DTD SVG 1.1//EN"
 "http://www.w3.org/Graphics/SVG/1.1/DTD/svg11.dtd">
<!-- Generated by graphviz version 2.38.0 (20140413.2041)
 -->
<!-- Title: controllers_diagram Pages: 1 -->
<svg width="710pt" height="490pt"
 viewBox="0.00 0.00 709.54 489.94" xmlns="http://www.w3.org/2000/svg" xmlns:xlink="http://www.w3.org/1999/xlink">
<g id="graph0" class="graph" transform="scale(1 1) rotate(0) translate(231.854 219.662)">
<title>controllers_diagram</title>
<polygon fill="white" stroke="none" points="-231.854,270.277 -231.854,-219.662 477.688,-219.662 477.688,270.277 -231.854,270.277"/>
<!-- _diagram_info -->
<g id="node1" class="node"><title>_diagram_info</title>
<text text-anchor="start" x="274.312" y="206.9" font-family="Times,serif" font-size="13.00">Controllers diagram</text>
<text text-anchor="start" x="274.312" y="219.9" font-family="Times,serif" font-size="13.00">Date: Sep 05 2014 &#45; 12:37</text>
<text text-anchor="start" x="274.312" y="232.9" font-family="Times,serif" font-size="13.00">Migration version: 20140905100351</text>
<text text-anchor="start" x="274.312" y="245.9" font-family="Times,serif" font-size="13.00">Generated by RailRoady 1.1.1</text>
<text text-anchor="start" x="274.312" y="258.9" font-family="Times,serif" font-size="13.00">http://railroady.prestonlee.com</text>
</g>
<!-- ApplicationController -->
<g id="node2" class="node"><title>ApplicationController</title>
<path fill="none" stroke="black" d="M-90.1402,79.6116C-90.1402,79.6116 88.4946,79.6116 88.4946,79.6116 94.4946,79.6116 100.495,73.6116 100.495,67.6116 100.495,67.6116 100.495,1.61156 100.495,1.61156 100.495,-4.38844 94.4946,-10.3884 88.4946,-10.3884 88.4946,-10.3884 -90.1402,-10.3884 -90.1402,-10.3884 -96.1402,-10.3884 -102.14,-4.38844 -102.14,1.61156 -102.14,1.61156 -102.14,67.6116 -102.14,67.6116 -102.14,73.6116 -96.1402,79.6116 -90.1402,79.6116"/>
<text text-anchor="middle" x="-0.822779" y="4.81156" font-family="Times,serif" font-size="14.00">ApplicationController</text>
<polyline fill="none" stroke="black" points="-102.14,11.6116 100.495,11.6116 "/>
<text text-anchor="start" x="-94.1402" y="26.8116" font-family="Times,serif" font-size="14.00">_one_time_conditions_valid_62?</text>
<polyline fill="none" stroke="black" points="-102.14,33.6116 100.495,33.6116 "/>
<polyline fill="none" stroke="black" points="-102.14,57.6116 100.495,57.6116 "/>
<text text-anchor="start" x="-94.1402" y="72.8116" font-family="Times,serif" font-size="14.00">_layout</text>
</g>
<!-- CommentsController -->
<g id="node3" class="node"><title>CommentsController</title>
<path fill="none" stroke="black" d="M73.2597,264.764C73.2597,264.764 183.474,264.764 183.474,264.764 189.474,264.764 195.474,258.764 195.474,252.764 195.474,252.764 195.474,102.764 195.474,102.764 195.474,96.7644 189.474,90.7644 183.474,90.7644 183.474,90.7644 73.2597,90.7644 73.2597,90.7644 67.2597,90.7644 61.2597,96.7644 61.2597,102.764 61.2597,102.764 61.2597,252.764 61.2597,252.764 61.2597,258.764 67.2597,264.764 73.2597,264.764"/>
<text text-anchor="middle" x="128.367" y="105.964" font-family="Times,serif" font-size="14.00">CommentsController</text>
<polyline fill="none" stroke="black" points="61.2597,112.764 195.474,112.764 "/>
<text text-anchor="start" x="69.2597" y="127.964" font-family="Times,serif" font-size="14.00">create</text>
<text text-anchor="start" x="69.2597" y="141.964" font-family="Times,serif" font-size="14.00">destroy</text>
<text text-anchor="start" x="69.2597" y="155.964" font-family="Times,serif" font-size="14.00">edit</text>
<text text-anchor="start" x="69.2597" y="169.964" font-family="Times,serif" font-size="14.00">index</text>
<text text-anchor="start" x="69.2597" y="183.964" font-family="Times,serif" font-size="14.00">new</text>
<text text-anchor="start" x="69.2597" y="197.964" font-family="Times,serif" font-size="14.00">show</text>
<text text-anchor="start" x="69.2597" y="211.964" font-family="Times,serif" font-size="14.00">update</text>
<polyline fill="none" stroke="black" points="61.2597,218.764 195.474,218.764 "/>
<polyline fill="none" stroke="black" points="61.2597,242.764 195.474,242.764 "/>
<text text-anchor="start" x="69.2597" y="257.964" font-family="Times,serif" font-size="14.00">_layout</text>
</g>
<!-- ApplicationController&#45;&gt;CommentsController -->
<g id="edge1" class="edge"><title>ApplicationController&#45;&gt;CommentsController</title>
<path fill="none" stroke="black" d="M40.0536,79.906C46.7805,87.3601 53.906,95.2557 61.0759,103.201"/>
</g>
<!-- CountriesController -->
<g id="node4" class="node"><title>CountriesController</title>
<path fill="none" stroke="black" d="M-185.6,265.777C-185.6,265.777 -81.6138,265.777 -81.6138,265.777 -75.6138,265.777 -69.6138,259.777 -69.6138,253.777 -69.6138,253.777 -69.6138,103.777 -69.6138,103.777 -69.6138,97.777 -75.6138,91.777 -81.6138,91.777 -81.6138,91.777 -185.6,91.777 -185.6,91.777 -191.6,91.777 -197.6,97.777 -197.6,103.777 -197.6,103.777 -197.6,253.777 -197.6,253.777 -197.6,259.777 -191.6,265.777 -185.6,265.777"/>
<text text-anchor="middle" x="-133.607" y="106.977" font-family="Times,serif" font-size="14.00">CountriesController</text>
<polyline fill="none" stroke="black" points="-197.6,113.777 -69.6138,113.777 "/>
<text text-anchor="start" x="-189.6" y="128.977" font-family="Times,serif" font-size="14.00">create</text>
<text text-anchor="start" x="-189.6" y="142.977" font-family="Times,serif" font-size="14.00">destroy</text>
<text text-anchor="start" x="-189.6" y="156.977" font-family="Times,serif" font-size="14.00">edit</text>
<text text-anchor="start" x="-189.6" y="170.977" font-family="Times,serif" font-size="14.00">index</text>
<text text-anchor="start" x="-189.6" y="184.977" font-family="Times,serif" font-size="14.00">new</text>
<text text-anchor="start" x="-189.6" y="198.977" font-family="Times,serif" font-size="14.00">show</text>
<text text-anchor="start" x="-189.6" y="212.977" font-family="Times,serif" font-size="14.00">update</text>
<polyline fill="none" stroke="black" points="-197.6,219.777 -69.6138,219.777 "/>
<polyline fill="none" stroke="black" points="-197.6,243.777 -69.6138,243.777 "/>
<text text-anchor="start" x="-189.6" y="258.977" font-family="Times,serif" font-size="14.00">_layout</text>
</g>
<!-- ApplicationController&#45;&gt;CountriesController -->
<g id="edge2" class="edge"><title>ApplicationController&#45;&gt;CountriesController</title>
<path fill="none" stroke="black" d="M-42.4722,79.8309C-51.0667,89.162 -60.3066,99.1939 -69.4886,109.163"/>
</g>
<!-- ResortsController -->
<g id="node5" class="node"><title>ResortsController</title>
<path fill="none" stroke="black" d="M-215.854,-5.12355C-215.854,-5.12355 -124.309,-5.12355 -124.309,-5.12355 -118.309,-5.12355 -112.309,-11.1236 -112.309,-17.1236 -112.309,-17.1236 -112.309,-167.124 -112.309,-167.124 -112.309,-173.124 -118.309,-179.124 -124.309,-179.124 -124.309,-179.124 -215.854,-179.124 -215.854,-179.124 -221.854,-179.124 -227.854,-173.124 -227.854,-167.124 -227.854,-167.124 -227.854,-17.1236 -227.854,-17.1236 -227.854,-11.1236 -221.854,-5.12355 -215.854,-5.12355"/>
<text text-anchor="middle" x="-170.082" y="-163.924" font-family="Times,serif" font-size="14.00">ResortsController</text>
<polyline fill="none" stroke="black" points="-227.854,-157.124 -112.309,-157.124 "/>
<text text-anchor="start" x="-219.854" y="-141.924" font-family="Times,serif" font-size="14.00">create</text>
<text text-anchor="start" x="-219.854" y="-127.924" font-family="Times,serif" font-size="14.00">destroy</text>
<text text-anchor="start" x="-219.854" y="-113.924" font-family="Times,serif" font-size="14.00">edit</text>
<text text-anchor="start" x="-219.854" y="-99.9236" font-family="Times,serif" font-size="14.00">index</text>
<text text-anchor="start" x="-219.854" y="-85.9236" font-family="Times,serif" font-size="14.00">new</text>
<text text-anchor="start" x="-219.854" y="-71.9236" font-family="Times,serif" font-size="14.00">show</text>
<text text-anchor="start" x="-219.854" y="-57.9236" font-family="Times,serif" font-size="14.00">update</text>
<polyline fill="none" stroke="black" points="-227.854,-51.1236 -112.309,-51.1236 "/>
<polyline fill="none" stroke="black" points="-227.854,-27.1236 -112.309,-27.1236 "/>
<text text-anchor="start" x="-219.854" y="-11.9236" font-family="Times,serif" font-size="14.00">_layout</text>
</g>
<!-- ApplicationController&#45;&gt;ResortsController -->
<g id="edge3" class="edge"><title>ApplicationController&#45;&gt;ResortsController</title>
<path fill="none" stroke="black" d="M-60.9737,-10.4273C-77.602,-22.8781 -95.6099,-36.3617 -112.112,-48.7177"/>
</g>
<!-- RunsController -->
<g id="node6" class="node"><title>RunsController</title>
<path fill="none" stroke="black" d="M120.836,-12.0007C120.836,-12.0007 199.167,-12.0007 199.167,-12.0007 205.167,-12.0007 211.167,-18.0007 211.167,-24.0007 211.167,-24.0007 211.167,-174.001 211.167,-174.001 211.167,-180.001 205.167,-186.001 199.167,-186.001 199.167,-186.001 120.836,-186.001 120.836,-186.001 114.836,-186.001 108.836,-180.001 108.836,-174.001 108.836,-174.001 108.836,-24.0007 108.836,-24.0007 108.836,-18.0007 114.836,-12.0007 120.836,-12.0007"/>
<text text-anchor="middle" x="160.001" y="-170.801" font-family="Times,serif" font-size="14.00">RunsController</text>
<polyline fill="none" stroke="black" points="108.836,-164.001 211.167,-164.001 "/>
<text text-anchor="start" x="116.836" y="-148.801" font-family="Times,serif" font-size="14.00">create</text>
<text text-anchor="start" x="116.836" y="-134.801" font-family="Times,serif" font-size="14.00">destroy</text>
<text text-anchor="start" x="116.836" y="-120.801" font-family="Times,serif" font-size="14.00">edit</text>
<text text-anchor="start" x="116.836" y="-106.801" font-family="Times,serif" font-size="14.00">index</text>
<text text-anchor="start" x="116.836" y="-92.8007" font-family="Times,serif" font-size="14.00">new</text>
<text text-anchor="start" x="116.836" y="-78.8007" font-family="Times,serif" font-size="14.00">show</text>
<text text-anchor="start" x="116.836" y="-64.8007" font-family="Times,serif" font-size="14.00">update</text>
<polyline fill="none" stroke="black" points="108.836,-58.0007 211.167,-58.0007 "/>
<polyline fill="none" stroke="black" points="108.836,-34.0007 211.167,-34.0007 "/>
<text text-anchor="start" x="116.836" y="-18.8007" font-family="Times,serif" font-size="14.00">_layout</text>
</g>
<!-- ApplicationController&#45;&gt;RunsController -->
<g id="edge4" class="edge"><title>ApplicationController&#45;&gt;RunsController</title>
<path fill="none" stroke="black" d="M53.6249,-10.6234C71.3944,-25.3863 91.0589,-41.7235 108.597,-56.2943"/>
</g>
<!-- UserController -->
<g id="node7" class="node"><title>UserController</title>
<path fill="none" stroke="black" d="M-48.2312,-111.162C-48.2312,-111.162 27.7483,-111.162 27.7483,-111.162 33.7483,-111.162 39.7483,-117.162 39.7483,-123.162 39.7483,-123.162 39.7483,-203.162 39.7483,-203.162 39.7483,-209.162 33.7483,-215.162 27.7483,-215.162 27.7483,-215.162 -48.2312,-215.162 -48.2312,-215.162 -54.2312,-215.162 -60.2312,-209.162 -60.2312,-203.162 -60.2312,-203.162 -60.2312,-123.162 -60.2312,-123.162 -60.2312,-117.162 -54.2312,-111.162 -48.2312,-111.162"/>
<text text-anchor="middle" x="-10.2414" y="-199.962" font-family="Times,serif" font-size="14.00">UserController</text>
<polyline fill="none" stroke="black" points="-60.2312,-193.162 39.7483,-193.162 "/>
<text text-anchor="start" x="-52.2312" y="-177.962" font-family="Times,serif" font-size="14.00">index</text>
<text text-anchor="start" x="-52.2312" y="-163.962" font-family="Times,serif" font-size="14.00">show</text>
<polyline fill="none" stroke="black" points="-60.2312,-157.162 39.7483,-157.162 "/>
<polyline fill="none" stroke="black" points="-60.2312,-133.162 39.7483,-133.162 "/>
<text text-anchor="start" x="-52.2312" y="-117.962" font-family="Times,serif" font-size="14.00">_layout</text>
</g>
<!-- ApplicationController&#45;&gt;UserController -->
<g id="edge5" class="edge"><title>ApplicationController&#45;&gt;UserController</title>
<path fill="none" stroke="black" d="M-2.98361,-10.7617C-4.40655,-40.6407 -6.2737,-79.8473 -7.75784,-111.011"/>
</g>
</g>
</svg>
