<?xml version="1.0" encoding="UTF-8" standalone="no"?>
<!DOCTYPE svg PUBLIC "-//W3C//DTD SVG 1.1//EN"
 "http://www.w3.org/Graphics/SVG/1.1/DTD/svg11.dtd">
<!-- Generated by graphviz version 2.38.0 (20140413.2041)
 -->
<!-- Title: controllers_diagram Pages: 1 -->
<svg width="635pt" height="471pt"
 viewBox="0.00 0.00 635.44 471.12" xmlns="http://www.w3.org/2000/svg" xmlns:xlink="http://www.w3.org/1999/xlink">
<g id="graph0" class="graph" transform="scale(1 1) rotate(0) translate(178.749 222.401)">
<title>controllers_diagram</title>
<polygon fill="white" stroke="none" points="-178.749,248.715 -178.749,-222.401 456.688,-222.401 456.688,248.715 -178.749,248.715"/>
<!-- _diagram_info -->
<g id="node1" class="node"><title>_diagram_info</title>
<text text-anchor="start" x="253.312" y="185.9" font-family="Times,serif" font-size="13.00">Controllers diagram</text>
<text text-anchor="start" x="253.312" y="198.9" font-family="Times,serif" font-size="13.00">Date: Sep 03 2014 &#45; 19:15</text>
<text text-anchor="start" x="253.312" y="211.9" font-family="Times,serif" font-size="13.00">Migration version: 20140903152347</text>
<text text-anchor="start" x="253.312" y="224.9" font-family="Times,serif" font-size="13.00">Generated by RailRoady 1.1.1</text>
<text text-anchor="start" x="253.312" y="237.9" font-family="Times,serif" font-size="13.00">http://railroady.prestonlee.com</text>
</g>
<!-- ApplicationController -->
<g id="node2" class="node"><title>ApplicationController</title>
<path fill="none" stroke="black" d="M-88.2645,57.2769C-88.2645,57.2769 90.3703,57.2769 90.3703,57.2769 96.3703,57.2769 102.37,51.2769 102.37,45.2769 102.37,45.2769 102.37,-20.7231 102.37,-20.7231 102.37,-26.7231 96.3703,-32.7231 90.3703,-32.7231 90.3703,-32.7231 -88.2645,-32.7231 -88.2645,-32.7231 -94.2645,-32.7231 -100.264,-26.7231 -100.264,-20.7231 -100.264,-20.7231 -100.264,45.2769 -100.264,45.2769 -100.264,51.2769 -94.2645,57.2769 -88.2645,57.2769"/>
<text text-anchor="middle" x="1.05292" y="-17.5231" font-family="Times,serif" font-size="14.00">ApplicationController</text>
<polyline fill="none" stroke="black" points="-100.264,-10.7231 102.37,-10.7231 "/>
<text text-anchor="start" x="-92.2645" y="4.47693" font-family="Times,serif" font-size="14.00">_one_time_conditions_valid_62?</text>
<polyline fill="none" stroke="black" points="-100.264,11.2769 102.37,11.2769 "/>
<polyline fill="none" stroke="black" points="-100.264,35.2769 102.37,35.2769 "/>
<text text-anchor="start" x="-92.2645" y="50.4769" font-family="Times,serif" font-size="14.00">_layout</text>
</g>
<!-- CommentsController -->
<g id="node3" class="node"><title>CommentsController</title>
<path fill="none" stroke="black" d="M69.1984,240.186C69.1984,240.186 179.412,240.186 179.412,240.186 185.412,240.186 191.412,234.186 191.412,228.186 191.412,228.186 191.412,78.1863 191.412,78.1863 191.412,72.1863 185.412,66.1863 179.412,66.1863 179.412,66.1863 69.1984,66.1863 69.1984,66.1863 63.1984,66.1863 57.1984,72.1863 57.1984,78.1863 57.1984,78.1863 57.1984,228.186 57.1984,228.186 57.1984,234.186 63.1984,240.186 69.1984,240.186"/>
<text text-anchor="middle" x="124.305" y="81.3863" font-family="Times,serif" font-size="14.00">CommentsController</text>
<polyline fill="none" stroke="black" points="57.1984,88.1863 191.412,88.1863 "/>
<text text-anchor="start" x="65.1984" y="103.386" font-family="Times,serif" font-size="14.00">create</text>
<text text-anchor="start" x="65.1984" y="117.386" font-family="Times,serif" font-size="14.00">destroy</text>
<text text-anchor="start" x="65.1984" y="131.386" font-family="Times,serif" font-size="14.00">edit</text>
<text text-anchor="start" x="65.1984" y="145.386" font-family="Times,serif" font-size="14.00">index</text>
<text text-anchor="start" x="65.1984" y="159.386" font-family="Times,serif" font-size="14.00">new</text>
<text text-anchor="start" x="65.1984" y="173.386" font-family="Times,serif" font-size="14.00">show</text>
<text text-anchor="start" x="65.1984" y="187.386" font-family="Times,serif" font-size="14.00">update</text>
<polyline fill="none" stroke="black" points="57.1984,194.186 191.412,194.186 "/>
<polyline fill="none" stroke="black" points="57.1984,218.186 191.412,218.186 "/>
<text text-anchor="start" x="65.1984" y="233.386" font-family="Times,serif" font-size="14.00">_layout</text>
</g>
<!-- ApplicationController&#45;&gt;CommentsController -->
<g id="edge1" class="edge"><title>ApplicationController&#45;&gt;CommentsController</title>
<path fill="none" stroke="black" d="M40.7292,57.6372C46.0071,63.6712 51.5321,69.9877 57.1186,76.3745"/>
</g>
<!-- CountriesController -->
<g id="node4" class="node"><title>CountriesController</title>
<path fill="none" stroke="black" d="M-162.749,244.215C-162.749,244.215 -58.7629,244.215 -58.7629,244.215 -52.7629,244.215 -46.7629,238.215 -46.7629,232.215 -46.7629,232.215 -46.7629,82.2149 -46.7629,82.2149 -46.7629,76.2149 -52.7629,70.2149 -58.7629,70.2149 -58.7629,70.2149 -162.749,70.2149 -162.749,70.2149 -168.749,70.2149 -174.749,76.2149 -174.749,82.2149 -174.749,82.2149 -174.749,232.215 -174.749,232.215 -174.749,238.215 -168.749,244.215 -162.749,244.215"/>
<text text-anchor="middle" x="-110.756" y="85.4149" font-family="Times,serif" font-size="14.00">CountriesController</text>
<polyline fill="none" stroke="black" points="-174.749,92.2149 -46.7629,92.2149 "/>
<text text-anchor="start" x="-166.749" y="107.415" font-family="Times,serif" font-size="14.00">create</text>
<text text-anchor="start" x="-166.749" y="121.415" font-family="Times,serif" font-size="14.00">destroy</text>
<text text-anchor="start" x="-166.749" y="135.415" font-family="Times,serif" font-size="14.00">edit</text>
<text text-anchor="start" x="-166.749" y="149.415" font-family="Times,serif" font-size="14.00">index</text>
<text text-anchor="start" x="-166.749" y="163.415" font-family="Times,serif" font-size="14.00">new</text>
<text text-anchor="start" x="-166.749" y="177.415" font-family="Times,serif" font-size="14.00">show</text>
<text text-anchor="start" x="-166.749" y="191.415" font-family="Times,serif" font-size="14.00">update</text>
<polyline fill="none" stroke="black" points="-174.749,198.215 -46.7629,198.215 "/>
<polyline fill="none" stroke="black" points="-174.749,222.215 -46.7629,222.215 "/>
<text text-anchor="start" x="-166.749" y="237.415" font-family="Times,serif" font-size="14.00">_layout</text>
</g>
<!-- ApplicationController&#45;&gt;CountriesController -->
<g id="edge2" class="edge"><title>ApplicationController&#45;&gt;CountriesController</title>
<path fill="none" stroke="black" d="M-33.7112,57.3417C-37.8781,62.7432 -42.2287,68.3828 -46.6492,74.1132"/>
</g>
<!-- ResortsController -->
<g id="node5" class="node"><title>ResortsController</title>
<path fill="none" stroke="black" d="M-158.405,-43.9012C-158.405,-43.9012 -66.8598,-43.9012 -66.8598,-43.9012 -60.8598,-43.9012 -54.8598,-49.9012 -54.8598,-55.9012 -54.8598,-55.9012 -54.8598,-205.901 -54.8598,-205.901 -54.8598,-211.901 -60.8598,-217.901 -66.8598,-217.901 -66.8598,-217.901 -158.405,-217.901 -158.405,-217.901 -164.405,-217.901 -170.405,-211.901 -170.405,-205.901 -170.405,-205.901 -170.405,-55.9012 -170.405,-55.9012 -170.405,-49.9012 -164.405,-43.9012 -158.405,-43.9012"/>
<text text-anchor="middle" x="-112.632" y="-202.701" font-family="Times,serif" font-size="14.00">ResortsController</text>
<polyline fill="none" stroke="black" points="-170.405,-195.901 -54.8598,-195.901 "/>
<text text-anchor="start" x="-162.405" y="-180.701" font-family="Times,serif" font-size="14.00">create</text>
<text text-anchor="start" x="-162.405" y="-166.701" font-family="Times,serif" font-size="14.00">destroy</text>
<text text-anchor="start" x="-162.405" y="-152.701" font-family="Times,serif" font-size="14.00">edit</text>
<text text-anchor="start" x="-162.405" y="-138.701" font-family="Times,serif" font-size="14.00">index</text>
<text text-anchor="start" x="-162.405" y="-124.701" font-family="Times,serif" font-size="14.00">new</text>
<text text-anchor="start" x="-162.405" y="-110.701" font-family="Times,serif" font-size="14.00">show</text>
<text text-anchor="start" x="-162.405" y="-96.7012" font-family="Times,serif" font-size="14.00">update</text>
<polyline fill="none" stroke="black" points="-170.405,-89.9012 -54.8598,-89.9012 "/>
<polyline fill="none" stroke="black" points="-170.405,-65.9012 -54.8598,-65.9012 "/>
<text text-anchor="start" x="-162.405" y="-50.7012" font-family="Times,serif" font-size="14.00">_layout</text>
</g>
<!-- ApplicationController&#45;&gt;ResortsController -->
<g id="edge3" class="edge"><title>ApplicationController&#45;&gt;ResortsController</title>
<path fill="none" stroke="black" d="M-34.9178,-33.0255C-41.2277,-40.9725 -47.9362,-49.4213 -54.6656,-57.8965"/>
</g>
<!-- RunsController -->
<g id="node6" class="node"><title>RunsController</title>
<path fill="none" stroke="black" d="M83.2814,-43.661C83.2814,-43.661 161.612,-43.661 161.612,-43.661 167.612,-43.661 173.612,-49.661 173.612,-55.661 173.612,-55.661 173.612,-205.661 173.612,-205.661 173.612,-211.661 167.612,-217.661 161.612,-217.661 161.612,-217.661 83.2814,-217.661 83.2814,-217.661 77.2814,-217.661 71.2814,-211.661 71.2814,-205.661 71.2814,-205.661 71.2814,-55.661 71.2814,-55.661 71.2814,-49.661 77.2814,-43.661 83.2814,-43.661"/>
<text text-anchor="middle" x="122.447" y="-202.461" font-family="Times,serif" font-size="14.00">RunsController</text>
<polyline fill="none" stroke="black" points="71.2814,-195.661 173.612,-195.661 "/>
<text text-anchor="start" x="79.2814" y="-180.461" font-family="Times,serif" font-size="14.00">create</text>
<text text-anchor="start" x="79.2814" y="-166.461" font-family="Times,serif" font-size="14.00">destroy</text>
<text text-anchor="start" x="79.2814" y="-152.461" font-family="Times,serif" font-size="14.00">edit</text>
<text text-anchor="start" x="79.2814" y="-138.461" font-family="Times,serif" font-size="14.00">index</text>
<text text-anchor="start" x="79.2814" y="-124.461" font-family="Times,serif" font-size="14.00">new</text>
<text text-anchor="start" x="79.2814" y="-110.461" font-family="Times,serif" font-size="14.00">show</text>
<text text-anchor="start" x="79.2814" y="-96.461" font-family="Times,serif" font-size="14.00">update</text>
<polyline fill="none" stroke="black" points="71.2814,-89.661 173.612,-89.661 "/>
<polyline fill="none" stroke="black" points="71.2814,-65.661 173.612,-65.661 "/>
<text text-anchor="start" x="79.2814" y="-50.461" font-family="Times,serif" font-size="14.00">_layout</text>
</g>
<!-- ApplicationController&#45;&gt;RunsController -->
<g id="edge4" class="edge"><title>ApplicationController&#45;&gt;RunsController</title>
<path fill="none" stroke="black" d="M39.4628,-32.9495C49.5348,-44.809 60.5576,-57.7881 71.1849,-70.3014"/>
</g>
</g>
</svg>
