<?xml version="1.0" encoding="UTF-8" standalone="no"?>
<!DOCTYPE svg PUBLIC "-//W3C//DTD SVG 1.1//EN"
 "http://www.w3.org/Graphics/SVG/1.1/DTD/svg11.dtd">
<!-- Generated by graphviz version 2.38.0 (20140413.2041)
 -->
<!-- Title: models_diagram Pages: 1 -->
<svg width="487pt" height="369pt"
 viewBox="0.00 0.00 487.28 369.00" xmlns="http://www.w3.org/2000/svg" xmlns:xlink="http://www.w3.org/1999/xlink">
<g id="graph0" class="graph" transform="scale(1 1) rotate(0) translate(4 365)">
<title>models_diagram</title>
<polygon fill="white" stroke="none" points="-4,4 -4,-365 483.283,-365 483.283,4 -4,4"/>
<!-- _diagram_info -->
<g id="node1" class="node"><title>_diagram_info</title>
<text text-anchor="start" x="8" y="-346.6" font-family="Times,serif" font-size="13.00">Models diagram</text>
<text text-anchor="start" x="8" y="-333.6" font-family="Times,serif" font-size="13.00">Date: Sep 05 2014 &#45; 12:37</text>
<text text-anchor="start" x="8" y="-320.6" font-family="Times,serif" font-size="13.00">Migration version: 20140905100351</text>
<text text-anchor="start" x="8" y="-307.6" font-family="Times,serif" font-size="13.00">Generated by RailRoady 1.1.1</text>
<text text-anchor="start" x="8" y="-294.6" font-family="Times,serif" font-size="13.00">http://railroady.prestonlee.com</text>
</g>
<!-- Comment -->
<g id="node2" class="node"><title>Comment</title>
<ellipse fill="none" stroke="black" cx="213.688" cy="-18" rx="44.9768" ry="18"/>
<text text-anchor="middle" x="213.688" y="-13.8" font-family="Times,serif" font-size="14.00">Comment</text>
</g>
<!-- Country -->
<g id="node3" class="node"><title>Country</title>
<ellipse fill="none" stroke="black" cx="373.688" cy="-234" rx="39.1887" ry="18"/>
<text text-anchor="middle" x="373.688" y="-229.8" font-family="Times,serif" font-size="14.00">Country</text>
</g>
<!-- Resort -->
<g id="node5" class="node"><title>Resort</title>
<ellipse fill="none" stroke="black" cx="329.688" cy="-162" rx="33.3925" ry="18"/>
<text text-anchor="middle" x="329.688" y="-157.8" font-family="Times,serif" font-size="14.00">Resort</text>
</g>
<!-- Country&#45;&gt;Resort -->
<g id="edge2" class="edge"><title>Country&#45;&gt;Resort</title>
<path fill="none" stroke="#7f471d" d="M358.932,-209.526C354.574,-202.592 349.789,-194.979 345.374,-187.955"/>
<ellipse fill="none" stroke="#7f471d" cx="361.132" cy="-213.024" rx="4.00002" ry="4.00002"/>
<polygon fill="#7f471d" stroke="#7f471d" points="345.362,-187.936 343.85,-177.075 342.701,-183.703 340.04,-179.47 340.04,-179.47 340.04,-179.47 342.701,-183.703 336.23,-181.865 345.362,-187.936 345.362,-187.936"/>
</g>
<!-- Marker -->
<g id="node4" class="node"><title>Marker</title>
<ellipse fill="none" stroke="black" cx="409.688" cy="-18" rx="36.2645" ry="18"/>
<text text-anchor="middle" x="409.688" y="-13.8" font-family="Times,serif" font-size="14.00">Marker</text>
</g>
<!-- Run -->
<g id="node6" class="node"><title>Run</title>
<ellipse fill="none" stroke="black" cx="268.688" cy="-90" rx="27" ry="18"/>
<text text-anchor="middle" x="268.688" y="-85.8" font-family="Times,serif" font-size="14.00">Run</text>
</g>
<!-- Resort&#45;&gt;Run -->
<g id="edge5" class="edge"><title>Resort&#45;&gt;Run</title>
<path fill="none" stroke="#8a77ce" d="M310.836,-139.367C303.768,-131.256 295.718,-122.018 288.56,-113.804"/>
<ellipse fill="none" stroke="#8a77ce" cx="313.522" cy="-142.449" rx="4.00002" ry="4.00002"/>
<polygon fill="#8a77ce" stroke="#8a77ce" points="288.339,-113.551 285.162,-103.055 285.054,-109.781 281.769,-106.011 281.769,-106.011 281.769,-106.011 285.054,-109.781 278.376,-108.968 288.339,-113.551 288.339,-113.551"/>
</g>
<!-- Run&#45;&gt;Comment -->
<g id="edge8" class="edge"><title>Run&#45;&gt;Comment</title>
<path fill="none" stroke="#2aa39e" d="M251.71,-67.3922C245.807,-59.8791 239.142,-51.3964 233.06,-43.6555"/>
<ellipse fill="none" stroke="#2aa39e" cx="254.282" cy="-70.6658" rx="4.00002" ry="4.00002"/>
<polygon fill="#2aa39e" stroke="#2aa39e" points="232.931,-43.4911 230.291,-32.8476 229.842,-39.5595 226.752,-35.6278 226.752,-35.6278 226.752,-35.6278 229.842,-39.5595 223.214,-38.4081 232.931,-43.4911 232.931,-43.4911"/>
</g>
<!-- Run&#45;&gt;Marker -->
<g id="edge7" class="edge"><title>Run&#45;&gt;Marker</title>
<path fill="none" stroke="#36a0f2" d="M297.067,-74.9109C319.848,-63.6012 351.893,-47.6922 375.979,-35.7348"/>
<ellipse fill="none" stroke="#36a0f2" cx="293.38" cy="-76.7416" rx="4.00002" ry="4.00002"/>
<polygon fill="#36a0f2" stroke="#36a0f2" points="376.153,-35.6486 387.111,-35.2324 380.631,-33.4252 385.11,-31.2018 385.11,-31.2018 385.11,-31.2018 380.631,-33.4252 383.109,-27.1712 376.153,-35.6486 376.153,-35.6486"/>
</g>
<!-- Segment -->
<g id="node7" class="node"><title>Segment</title>
<ellipse fill="none" stroke="black" cx="409.688" cy="-90" rx="41.1093" ry="18"/>
<text text-anchor="middle" x="409.688" y="-85.8" font-family="Times,serif" font-size="14.00">Segment</text>
</g>
<!-- Segment&#45;&gt;Marker -->
<g id="edge10" class="edge"><title>Segment&#45;&gt;Marker</title>
<path fill="none" stroke="#e1ce8e" d="M409.688,-63.6398C409.688,-58.0629 409.688,-52.1319 409.688,-46.4761"/>
<ellipse fill="none" stroke="#e1ce8e" cx="409.688" cy="-67.6966" rx="4" ry="4"/>
<polygon fill="#e1ce8e" stroke="#e1ce8e" points="409.688,-46.1043 414.188,-36.1043 409.688,-41.1043 409.688,-36.1043 409.688,-36.1043 409.688,-36.1043 409.688,-41.1043 405.188,-36.1044 409.688,-46.1043 409.688,-46.1043"/>
</g>
<!-- User -->
<g id="node8" class="node"><title>User</title>
<ellipse fill="none" stroke="black" cx="213.688" cy="-162" rx="27" ry="18"/>
<text text-anchor="middle" x="213.688" y="-157.8" font-family="Times,serif" font-size="14.00">User</text>
</g>
<!-- User&#45;&gt;Comment -->
<g id="edge13" class="edge"><title>User&#45;&gt;Comment</title>
<path fill="none" stroke="#63ac7e" d="M213.688,-135.558C213.688,-110.444 213.688,-72.164 213.688,-46.3932"/>
<ellipse fill="none" stroke="#63ac7e" cx="213.688" cy="-139.871" rx="4" ry="4"/>
<polygon fill="#63ac7e" stroke="#63ac7e" points="213.688,-46.1893 218.188,-36.1892 213.688,-41.1893 213.688,-36.1893 213.688,-36.1893 213.688,-36.1893 213.688,-41.1893 209.188,-36.1893 213.688,-46.1893 213.688,-46.1893"/>
</g>
<!-- User&#45;&gt;Run -->
<g id="edge12" class="edge"><title>User&#45;&gt;Run</title>
<path fill="none" stroke="#a5472a" d="M230.652,-139.409C236.932,-131.417 244.075,-122.325 250.462,-114.196"/>
<ellipse fill="none" stroke="#a5472a" cx="228.093" cy="-142.666" rx="4.00002" ry="4.00002"/>
<polygon fill="#a5472a" stroke="#a5472a" points="250.599,-114.023 260.315,-108.94 253.688,-110.091 256.777,-106.159 256.777,-106.159 256.777,-106.159 253.688,-110.091 253.238,-103.379 250.599,-114.023 250.599,-114.023"/>
</g>
<!-- ActiveRecord::Base -->
<g id="node9" class="node"><title>ActiveRecord::Base</title>
<ellipse fill="none" stroke="black" cx="306.688" cy="-324.5" rx="81.1422" ry="18"/>
<text text-anchor="middle" x="306.688" y="-320.3" font-family="Times,serif" font-size="14.00">ActiveRecord::Base</text>
</g>
<!-- ActiveRecord::Base&#45;&gt;Comment -->
<g id="edge1" class="edge"><title>ActiveRecord::Base&#45;&gt;Comment</title>
<path fill="none" stroke="black" d="M283.042,-307.208C251.236,-283.583 196.491,-236.411 177.688,-180 160.569,-128.645 188.35,-65.3645 204.063,-35.7586"/>
</g>
<!-- ActiveRecord::Base&#45;&gt;Country -->
<g id="edge3" class="edge"><title>ActiveRecord::Base&#45;&gt;Country</title>
<path fill="none" stroke="black" d="M319.606,-306.436C331.698,-290.464 349.632,-266.775 361.487,-251.117"/>
</g>
<!-- ActiveRecord::Base&#45;&gt;Marker -->
<g id="edge4" class="edge"><title>ActiveRecord::Base&#45;&gt;Marker</title>
<path fill="none" stroke="black" d="M355.27,-310.05C384.794,-299.272 420.565,-281.044 440.688,-252 486.502,-185.876 489.387,-146.761 459.688,-72 453.523,-56.4819 440.422,-42.8758 429.177,-33.3357"/>
</g>
<!-- ActiveRecord::Base&#45;&gt;Resort -->
<g id="edge6" class="edge"><title>ActiveRecord::Base&#45;&gt;Resort</title>
<path fill="none" stroke="black" d="M309.149,-306.324C313.576,-275.432 322.83,-210.855 327.244,-180.053"/>
</g>
<!-- ActiveRecord::Base&#45;&gt;Run -->
<g id="edge9" class="edge"><title>ActiveRecord::Base&#45;&gt;Run</title>
<path fill="none" stroke="black" d="M303.894,-306.404C296.866,-263.407 278.518,-151.145 271.486,-108.121"/>
</g>
<!-- ActiveRecord::Base&#45;&gt;Segment -->
<g id="edge11" class="edge"><title>ActiveRecord::Base&#45;&gt;Segment</title>
<path fill="none" stroke="black" d="M349.431,-309.148C375.363,-297.972 406.327,-279.638 421.688,-252 447.695,-205.206 428.215,-138.616 416.646,-107.817"/>
</g>
<!-- ActiveRecord::Base&#45;&gt;User -->
<g id="edge14" class="edge"><title>ActiveRecord::Base&#45;&gt;User</title>
<path fill="none" stroke="black" d="M292.866,-306.524C281.761,-292.432 266.176,-271.597 254.688,-252 240.491,-227.784 227.563,-197.812 220.165,-179.563"/>
</g>
</g>
</svg>
