<?xml version="1.0" encoding="UTF-8" standalone="no"?>
<!DOCTYPE svg PUBLIC "-//W3C//DTD SVG 1.1//EN"
 "http://www.w3.org/Graphics/SVG/1.1/DTD/svg11.dtd">
<!-- Generated by graphviz version 2.38.0 (20140413.2041)
 -->
<!-- Title: models_diagram Pages: 1 -->
<svg width="445pt" height="369pt"
 viewBox="0.00 0.00 444.68 369.00" xmlns="http://www.w3.org/2000/svg" xmlns:xlink="http://www.w3.org/1999/xlink">
<g id="graph0" class="graph" transform="scale(1 1) rotate(0) translate(4 365)">
<title>models_diagram</title>
<polygon fill="white" stroke="none" points="-4,4 -4,-365 440.676,-365 440.676,4 -4,4"/>
<!-- _diagram_info -->
<g id="node1" class="node"><title>_diagram_info</title>
<text text-anchor="start" x="8" y="-346.6" font-family="Times,serif" font-size="13.00">Models diagram</text>
<text text-anchor="start" x="8" y="-333.6" font-family="Times,serif" font-size="13.00">Date: Sep 03 2014 &#45; 19:15</text>
<text text-anchor="start" x="8" y="-320.6" font-family="Times,serif" font-size="13.00">Migration version: 20140903152347</text>
<text text-anchor="start" x="8" y="-307.6" font-family="Times,serif" font-size="13.00">Generated by RailRoady 1.1.1</text>
<text text-anchor="start" x="8" y="-294.6" font-family="Times,serif" font-size="13.00">http://railroady.prestonlee.com</text>
</g>
<!-- Comment -->
<g id="node2" class="node"><title>Comment</title>
<ellipse fill="none" stroke="black" cx="391.688" cy="-18" rx="44.9768" ry="18"/>
<text text-anchor="middle" x="391.688" y="-13.8" font-family="Times,serif" font-size="14.00">Comment</text>
</g>
<!-- Country -->
<g id="node3" class="node"><title>Country</title>
<ellipse fill="none" stroke="black" cx="272.688" cy="-234" rx="39.1887" ry="18"/>
<text text-anchor="middle" x="272.688" y="-229.8" font-family="Times,serif" font-size="14.00">Country</text>
</g>
<!-- Resort -->
<g id="node5" class="node"><title>Resort</title>
<ellipse fill="none" stroke="black" cx="272.688" cy="-162" rx="33.3925" ry="18"/>
<text text-anchor="middle" x="272.688" y="-157.8" font-family="Times,serif" font-size="14.00">Resort</text>
</g>
<!-- Country&#45;&gt;Resort -->
<g id="edge2" class="edge"><title>Country&#45;&gt;Resort</title>
<path fill="none" stroke="#3962f5" d="M272.688,-207.64C272.688,-202.063 272.688,-196.132 272.688,-190.476"/>
<ellipse fill="none" stroke="#3962f5" cx="272.688" cy="-211.697" rx="4" ry="4"/>
<polygon fill="#3962f5" stroke="#3962f5" points="272.688,-190.104 277.188,-180.104 272.688,-185.104 272.688,-180.104 272.688,-180.104 272.688,-180.104 272.688,-185.104 268.188,-180.104 272.688,-190.104 272.688,-190.104"/>
</g>
<!-- Marker -->
<g id="node4" class="node"><title>Marker</title>
<ellipse fill="none" stroke="black" cx="228.688" cy="-18" rx="36.2645" ry="18"/>
<text text-anchor="middle" x="228.688" y="-13.8" font-family="Times,serif" font-size="14.00">Marker</text>
</g>
<!-- Run -->
<g id="node6" class="node"><title>Run</title>
<ellipse fill="none" stroke="black" cx="336.688" cy="-90" rx="27" ry="18"/>
<text text-anchor="middle" x="336.688" y="-85.8" font-family="Times,serif" font-size="14.00">Run</text>
</g>
<!-- Resort&#45;&gt;Run -->
<g id="edge5" class="edge"><title>Resort&#45;&gt;Run</title>
<path fill="none" stroke="#dd4054" d="M292.466,-139.367C299.959,-131.172 308.504,-121.826 316.073,-113.548"/>
<ellipse fill="none" stroke="#dd4054" cx="289.591" cy="-142.513" rx="4.00002" ry="4.00002"/>
<polygon fill="#dd4054" stroke="#dd4054" points="316.215,-113.392 326.284,-109.048 319.589,-109.702 322.963,-106.011 322.963,-106.011 322.963,-106.011 319.589,-109.702 319.642,-102.975 316.215,-113.392 316.215,-113.392"/>
</g>
<!-- Run&#45;&gt;Comment -->
<g id="edge8" class="edge"><title>Run&#45;&gt;Comment</title>
<path fill="none" stroke="#aa4e0d" d="M353.665,-67.3922C359.568,-59.8791 366.233,-51.3964 372.316,-43.6555"/>
<ellipse fill="none" stroke="#aa4e0d" cx="351.093" cy="-70.6658" rx="4.00002" ry="4.00002"/>
<polygon fill="#aa4e0d" stroke="#aa4e0d" points="372.445,-43.4911 382.161,-38.4081 375.534,-39.5595 378.623,-35.6278 378.623,-35.6278 378.623,-35.6278 375.534,-39.5595 375.085,-32.8476 372.445,-43.4911 372.445,-43.4911"/>
</g>
<!-- Run&#45;&gt;Marker -->
<g id="edge7" class="edge"><title>Run&#45;&gt;Marker</title>
<path fill="none" stroke="#526b2e" d="M310.813,-72.2292C295.087,-62.0364 274.946,-48.9824 258.546,-38.3529"/>
<ellipse fill="none" stroke="#526b2e" cx="314.519" cy="-74.6313" rx="4.00002" ry="4.00002"/>
<polygon fill="#526b2e" stroke="#526b2e" points="258.264,-38.1696 252.32,-28.9544 254.068,-35.4501 249.872,-32.7306 249.872,-32.7306 249.872,-32.7306 254.068,-35.4501 247.425,-36.5068 258.264,-38.1696 258.264,-38.1696"/>
</g>
<!-- User -->
<g id="node7" class="node"><title>User</title>
<ellipse fill="none" stroke="black" cx="391.688" cy="-162" rx="27" ry="18"/>
<text text-anchor="middle" x="391.688" y="-157.8" font-family="Times,serif" font-size="14.00">User</text>
</g>
<!-- User&#45;&gt;Comment -->
<g id="edge11" class="edge"><title>User&#45;&gt;Comment</title>
<path fill="none" stroke="#a5c4d0" d="M391.688,-135.558C391.688,-110.444 391.688,-72.164 391.688,-46.3932"/>
<ellipse fill="none" stroke="#a5c4d0" cx="391.688" cy="-139.871" rx="4" ry="4"/>
<polygon fill="#a5c4d0" stroke="#a5c4d0" points="391.688,-46.1893 396.188,-36.1892 391.688,-41.1893 391.688,-36.1893 391.688,-36.1893 391.688,-36.1893 391.688,-41.1893 387.188,-36.1893 391.688,-46.1893 391.688,-46.1893"/>
</g>
<!-- User&#45;&gt;Run -->
<g id="edge10" class="edge"><title>User&#45;&gt;Run</title>
<path fill="none" stroke="#8cb013" d="M374.723,-139.409C368.444,-131.417 361.3,-122.325 354.913,-114.196"/>
<ellipse fill="none" stroke="#8cb013" cx="377.282" cy="-142.666" rx="4.00002" ry="4.00002"/>
<polygon fill="#8cb013" stroke="#8cb013" points="354.777,-114.023 352.137,-103.379 351.688,-110.091 348.599,-106.159 348.599,-106.159 348.599,-106.159 351.688,-110.091 345.06,-108.94 354.777,-114.023 354.777,-114.023"/>
</g>
<!-- ActiveRecord::Base -->
<g id="node8" class="node"><title>ActiveRecord::Base</title>
<ellipse fill="none" stroke="black" cx="306.688" cy="-324.5" rx="81.1422" ry="18"/>
<text text-anchor="middle" x="306.688" y="-320.3" font-family="Times,serif" font-size="14.00">ActiveRecord::Base</text>
</g>
<!-- ActiveRecord::Base&#45;&gt;Comment -->
<g id="edge1" class="edge"><title>ActiveRecord::Base&#45;&gt;Comment</title>
<path fill="none" stroke="black" d="M328.571,-307.024C358.314,-283.009 409.841,-235.192 427.688,-180 444.343,-128.493 416.783,-65.2848 401.217,-35.7273"/>
</g>
<!-- ActiveRecord::Base&#45;&gt;Country -->
<g id="edge3" class="edge"><title>ActiveRecord::Base&#45;&gt;Country</title>
<path fill="none" stroke="black" d="M300.132,-306.436C294.112,-290.765 285.237,-267.666 279.223,-252.011"/>
</g>
<!-- ActiveRecord::Base&#45;&gt;Marker -->
<g id="edge4" class="edge"><title>ActiveRecord::Base&#45;&gt;Marker</title>
<path fill="none" stroke="black" d="M274.581,-307.739C253.877,-295.64 228.659,-276.801 216.688,-252 181.119,-178.316 209.154,-75.844 222.563,-35.8924"/>
</g>
<!-- ActiveRecord::Base&#45;&gt;Resort -->
<g id="edge6" class="edge"><title>ActiveRecord::Base&#45;&gt;Resort</title>
<path fill="none" stroke="black" d="M278.18,-307.589C259.133,-295.198 235.635,-276.071 224.688,-252 218.064,-237.436 218.932,-230.929 224.688,-216 230.672,-200.479 243.543,-186.685 254.451,-177.063"/>
</g>
<!-- ActiveRecord::Base&#45;&gt;Run -->
<g id="edge9" class="edge"><title>ActiveRecord::Base&#45;&gt;Run</title>
<path fill="none" stroke="black" d="M310.542,-306.241C313.65,-291.808 317.942,-270.646 320.688,-252 328.381,-199.756 333.404,-137.417 335.529,-107.986"/>
</g>
<!-- ActiveRecord::Base&#45;&gt;User -->
<g id="edge12" class="edge"><title>ActiveRecord::Base&#45;&gt;User</title>
<path fill="none" stroke="black" d="M318.971,-306.69C329.017,-292.525 343.222,-271.503 353.688,-252 366.716,-227.722 378.647,-198.024 385.54,-179.815"/>
</g>
</g>
</svg>
