<?xml version="1.0" encoding="UTF-8" standalone="no"?>
<!DOCTYPE svg PUBLIC "-//W3C//DTD SVG 1.1//EN"
 "http://www.w3.org/Graphics/SVG/1.1/DTD/svg11.dtd">
<!-- Generated by graphviz version 2.38.0 (20140413.2041)
 -->
<!-- Title: models_diagram Pages: 1 -->
<svg width="608pt" height="867pt"
 viewBox="0.00 0.00 607.89 867.00" xmlns="http://www.w3.org/2000/svg" xmlns:xlink="http://www.w3.org/1999/xlink">
<g id="graph0" class="graph" transform="scale(1 1) rotate(0) translate(4 863)">
<title>models_diagram</title>
<polygon fill="white" stroke="none" points="-4,4 -4,-863 603.889,-863 603.889,4 -4,4"/>
<!-- _diagram_info -->
<g id="node1" class="node"><title>_diagram_info</title>
<text text-anchor="start" x="13.9621" y="-844.6" font-family="Times,serif" font-size="13.00">Models diagram</text>
<text text-anchor="start" x="13.9621" y="-831.6" font-family="Times,serif" font-size="13.00">Date: Sep 05 2014 &#45; 12:37</text>
<text text-anchor="start" x="13.9621" y="-818.6" font-family="Times,serif" font-size="13.00">Migration version: 20140905100351</text>
<text text-anchor="start" x="13.9621" y="-805.6" font-family="Times,serif" font-size="13.00">Generated by RailRoady 1.1.1</text>
<text text-anchor="start" x="13.9621" y="-792.6" font-family="Times,serif" font-size="13.00">http://railroady.prestonlee.com</text>
</g>
<!-- Comment -->
<g id="node2" class="node"><title>Comment</title>
<path fill="none" stroke="black" d="M90.1445,-14.5C90.1445,-14.5 199.155,-14.5 199.155,-14.5 205.155,-14.5 211.155,-20.5 211.155,-26.5 211.155,-26.5 211.155,-116.5 211.155,-116.5 211.155,-122.5 205.155,-128.5 199.155,-128.5 199.155,-128.5 90.1445,-128.5 90.1445,-128.5 84.1445,-128.5 78.1445,-122.5 78.1445,-116.5 78.1445,-116.5 78.1445,-26.5 78.1445,-26.5 78.1445,-20.5 84.1445,-14.5 90.1445,-14.5"/>
<text text-anchor="middle" x="144.65" y="-113.3" font-family="Times,serif" font-size="14.00">Comment</text>
<polyline fill="none" stroke="black" points="78.1445,-106.5 211.155,-106.5 "/>
<text text-anchor="start" x="86.1445" y="-91.3" font-family="Times,serif" font-size="14.00">id :integer</text>
<text text-anchor="start" x="86.1445" y="-77.3" font-family="Times,serif" font-size="14.00">content :string</text>
<text text-anchor="start" x="86.1445" y="-63.3" font-family="Times,serif" font-size="14.00">user_id :integer</text>
<text text-anchor="start" x="86.1445" y="-49.3" font-family="Times,serif" font-size="14.00">run_id :integer</text>
<text text-anchor="start" x="86.1445" y="-35.3" font-family="Times,serif" font-size="14.00">created_at :datetime</text>
<text text-anchor="start" x="86.1445" y="-21.3" font-family="Times,serif" font-size="14.00">updated_at :datetime</text>
</g>
<!-- Country -->
<g id="node3" class="node"><title>Country</title>
<path fill="none" stroke="black" d="M353.144,-663.5C353.144,-663.5 462.155,-663.5 462.155,-663.5 468.155,-663.5 474.155,-669.5 474.155,-675.5 474.155,-675.5 474.155,-737.5 474.155,-737.5 474.155,-743.5 468.155,-749.5 462.155,-749.5 462.155,-749.5 353.144,-749.5 353.144,-749.5 347.144,-749.5 341.144,-743.5 341.144,-737.5 341.144,-737.5 341.144,-675.5 341.144,-675.5 341.144,-669.5 347.144,-663.5 353.144,-663.5"/>
<text text-anchor="middle" x="407.65" y="-734.3" font-family="Times,serif" font-size="14.00">Country</text>
<polyline fill="none" stroke="black" points="341.144,-727.5 474.155,-727.5 "/>
<text text-anchor="start" x="349.144" y="-712.3" font-family="Times,serif" font-size="14.00">id :integer</text>
<text text-anchor="start" x="349.144" y="-698.3" font-family="Times,serif" font-size="14.00">name :string</text>
<text text-anchor="start" x="349.144" y="-684.3" font-family="Times,serif" font-size="14.00">created_at :datetime</text>
<text text-anchor="start" x="349.144" y="-670.3" font-family="Times,serif" font-size="14.00">updated_at :datetime</text>
</g>
<!-- Resort -->
<g id="node5" class="node"><title>Resort</title>
<path fill="none" stroke="black" d="M315.144,-435.5C315.144,-435.5 424.155,-435.5 424.155,-435.5 430.155,-435.5 436.155,-441.5 436.155,-447.5 436.155,-447.5 436.155,-551.5 436.155,-551.5 436.155,-557.5 430.155,-563.5 424.155,-563.5 424.155,-563.5 315.144,-563.5 315.144,-563.5 309.144,-563.5 303.144,-557.5 303.144,-551.5 303.144,-551.5 303.144,-447.5 303.144,-447.5 303.144,-441.5 309.144,-435.5 315.144,-435.5"/>
<text text-anchor="middle" x="369.65" y="-548.3" font-family="Times,serif" font-size="14.00">Resort</text>
<polyline fill="none" stroke="black" points="303.144,-541.5 436.155,-541.5 "/>
<text text-anchor="start" x="311.144" y="-526.3" font-family="Times,serif" font-size="14.00">id :integer</text>
<text text-anchor="start" x="311.144" y="-512.3" font-family="Times,serif" font-size="14.00">name :string</text>
<text text-anchor="start" x="311.144" y="-498.3" font-family="Times,serif" font-size="14.00">description :text</text>
<text text-anchor="start" x="311.144" y="-484.3" font-family="Times,serif" font-size="14.00">country_id :integer</text>
<text text-anchor="start" x="311.144" y="-470.3" font-family="Times,serif" font-size="14.00">image :text</text>
<text text-anchor="start" x="311.144" y="-456.3" font-family="Times,serif" font-size="14.00">created_at :datetime</text>
<text text-anchor="start" x="311.144" y="-442.3" font-family="Times,serif" font-size="14.00">updated_at :datetime</text>
</g>
<!-- Country&#45;&gt;Resort -->
<g id="edge2" class="edge"><title>Country&#45;&gt;Resort</title>
<path fill="none" stroke="#8d1642" d="M398.299,-655.056C393.759,-630.561 388.217,-600.668 383.222,-573.721"/>
<ellipse fill="none" stroke="#8d1642" cx="399.047" cy="-659.091" rx="4.00001" ry="4.00001"/>
<polygon fill="#8d1642" stroke="#8d1642" points="383.161,-573.387 385.763,-562.735 382.249,-568.471 381.338,-563.555 381.338,-563.555 381.338,-563.555 382.249,-568.471 376.913,-564.375 383.161,-573.387 383.161,-573.387"/>
</g>
<!-- Marker -->
<g id="node4" class="node"><title>Marker</title>
<path fill="none" stroke="black" d="M391.144,-0.5C391.144,-0.5 500.155,-0.5 500.155,-0.5 506.155,-0.5 512.155,-6.5 512.155,-12.5 512.155,-12.5 512.155,-130.5 512.155,-130.5 512.155,-136.5 506.155,-142.5 500.155,-142.5 500.155,-142.5 391.144,-142.5 391.144,-142.5 385.144,-142.5 379.144,-136.5 379.144,-130.5 379.144,-130.5 379.144,-12.5 379.144,-12.5 379.144,-6.5 385.144,-0.5 391.144,-0.5"/>
<text text-anchor="middle" x="445.65" y="-127.3" font-family="Times,serif" font-size="14.00">Marker</text>
<polyline fill="none" stroke="black" points="379.144,-120.5 512.155,-120.5 "/>
<text text-anchor="start" x="387.144" y="-105.3" font-family="Times,serif" font-size="14.00">id :integer</text>
<text text-anchor="start" x="387.144" y="-91.3" font-family="Times,serif" font-size="14.00">latitude :decimal</text>
<text text-anchor="start" x="387.144" y="-77.3" font-family="Times,serif" font-size="14.00">longitude :decimal</text>
<text text-anchor="start" x="387.144" y="-63.3" font-family="Times,serif" font-size="14.00">elevation :decimal</text>
<text text-anchor="start" x="387.144" y="-49.3" font-family="Times,serif" font-size="14.00">datetime :datetime</text>
<text text-anchor="start" x="387.144" y="-35.3" font-family="Times,serif" font-size="14.00">run_id :integer</text>
<text text-anchor="start" x="387.144" y="-21.3" font-family="Times,serif" font-size="14.00">created_at :datetime</text>
<text text-anchor="start" x="387.144" y="-7.3" font-family="Times,serif" font-size="14.00">updated_at :datetime</text>
</g>
<!-- Run -->
<g id="node6" class="node"><title>Run</title>
<path fill="none" stroke="black" d="M220.144,-179.5C220.144,-179.5 329.155,-179.5 329.155,-179.5 335.155,-179.5 341.155,-185.5 341.155,-191.5 341.155,-191.5 341.155,-323.5 341.155,-323.5 341.155,-329.5 335.155,-335.5 329.155,-335.5 329.155,-335.5 220.144,-335.5 220.144,-335.5 214.144,-335.5 208.144,-329.5 208.144,-323.5 208.144,-323.5 208.144,-191.5 208.144,-191.5 208.144,-185.5 214.144,-179.5 220.144,-179.5"/>
<text text-anchor="middle" x="274.65" y="-320.3" font-family="Times,serif" font-size="14.00">Run</text>
<polyline fill="none" stroke="black" points="208.144,-313.5 341.155,-313.5 "/>
<text text-anchor="start" x="216.144" y="-298.3" font-family="Times,serif" font-size="14.00">id :integer</text>
<text text-anchor="start" x="216.144" y="-284.3" font-family="Times,serif" font-size="14.00">name :string</text>
<text text-anchor="start" x="216.144" y="-270.3" font-family="Times,serif" font-size="14.00">description :text</text>
<text text-anchor="start" x="216.144" y="-256.3" font-family="Times,serif" font-size="14.00">image :string</text>
<text text-anchor="start" x="216.144" y="-242.3" font-family="Times,serif" font-size="14.00">video :text</text>
<text text-anchor="start" x="216.144" y="-228.3" font-family="Times,serif" font-size="14.00">resort_id :integer</text>
<text text-anchor="start" x="216.144" y="-214.3" font-family="Times,serif" font-size="14.00">rating :float</text>
<text text-anchor="start" x="216.144" y="-200.3" font-family="Times,serif" font-size="14.00">created_at :datetime</text>
<text text-anchor="start" x="216.144" y="-186.3" font-family="Times,serif" font-size="14.00">updated_at :datetime</text>
</g>
<!-- Resort&#45;&gt;Run -->
<g id="edge5" class="edge"><title>Resort&#45;&gt;Run</title>
<path fill="none" stroke="#7edf2d" d="M341.665,-427.8C331.416,-401.909 319.7,-372.31 308.961,-345.18"/>
<ellipse fill="none" stroke="#7edf2d" cx="343.217" cy="-431.724" rx="4.00001" ry="4.00001"/>
<polygon fill="#7edf2d" stroke="#7edf2d" points="308.887,-344.995 309.391,-334.04 307.047,-340.346 305.207,-335.697 305.207,-335.697 305.207,-335.697 307.047,-340.346 301.023,-337.353 308.887,-344.995 308.887,-344.995"/>
</g>
<!-- Run&#45;&gt;Comment -->
<g id="edge8" class="edge"><title>Run&#45;&gt;Comment</title>
<path fill="none" stroke="#1c5cdd" d="M215.272,-172.457C206.814,-160.486 198.228,-148.334 190.093,-136.819"/>
<ellipse fill="none" stroke="#1c5cdd" cx="217.775" cy="-176" rx="4.00002" ry="4.00002"/>
<polygon fill="#1c5cdd" stroke="#1c5cdd" points="190.028,-136.727 187.932,-125.963 187.142,-132.643 184.257,-128.56 184.257,-128.56 184.257,-128.56 187.142,-132.643 180.582,-131.156 190.028,-136.727 190.028,-136.727"/>
</g>
<!-- Run&#45;&gt;Marker -->
<g id="edge7" class="edge"><title>Run&#45;&gt;Marker</title>
<path fill="none" stroke="#cb8030" d="M346.705,-178.967C355.514,-169.488 364.519,-159.799 373.332,-150.315"/>
<ellipse fill="none" stroke="#cb8030" cx="343.976" cy="-181.904" rx="4.00002" ry="4.00002"/>
<polygon fill="#cb8030" stroke="#cb8030" points="373.545,-150.087 383.648,-145.825 376.948,-146.424 380.352,-142.762 380.352,-142.762 380.352,-142.762 376.948,-146.424 377.056,-139.698 373.545,-150.087 373.545,-150.087"/>
</g>
<!-- Segment -->
<g id="node7" class="node"><title>Segment</title>
<path fill="none" stroke="black" d="M391.144,-214.5C391.144,-214.5 500.155,-214.5 500.155,-214.5 506.155,-214.5 512.155,-220.5 512.155,-226.5 512.155,-226.5 512.155,-288.5 512.155,-288.5 512.155,-294.5 506.155,-300.5 500.155,-300.5 500.155,-300.5 391.144,-300.5 391.144,-300.5 385.144,-300.5 379.144,-294.5 379.144,-288.5 379.144,-288.5 379.144,-226.5 379.144,-226.5 379.144,-220.5 385.144,-214.5 391.144,-214.5"/>
<text text-anchor="middle" x="445.65" y="-285.3" font-family="Times,serif" font-size="14.00">Segment</text>
<polyline fill="none" stroke="black" points="379.144,-278.5 512.155,-278.5 "/>
<text text-anchor="start" x="387.144" y="-263.3" font-family="Times,serif" font-size="14.00">id :integer</text>
<text text-anchor="start" x="387.144" y="-249.3" font-family="Times,serif" font-size="14.00">run_id :integer</text>
<text text-anchor="start" x="387.144" y="-235.3" font-family="Times,serif" font-size="14.00">created_at :datetime</text>
<text text-anchor="start" x="387.144" y="-221.3" font-family="Times,serif" font-size="14.00">updated_at :datetime</text>
</g>
<!-- Segment&#45;&gt;Marker -->
<g id="edge10" class="edge"><title>Segment&#45;&gt;Marker</title>
<path fill="none" stroke="#7353ba" d="M445.65,-206.106C445.65,-189.589 445.65,-170.806 445.65,-152.649"/>
<ellipse fill="none" stroke="#7353ba" cx="445.65" cy="-210.287" rx="4" ry="4"/>
<polygon fill="#7353ba" stroke="#7353ba" points="445.65,-152.645 450.15,-142.645 445.65,-147.645 445.65,-142.645 445.65,-142.645 445.65,-142.645 445.65,-147.645 441.15,-142.645 445.65,-152.645 445.65,-152.645"/>
</g>
<!-- User -->
<g id="node8" class="node"><title>User</title>
<path fill="none" stroke="black" d="M54.372,-372.5C54.372,-372.5 234.928,-372.5 234.928,-372.5 240.928,-372.5 246.928,-378.5 246.928,-384.5 246.928,-384.5 246.928,-614.5 246.928,-614.5 246.928,-620.5 240.928,-626.5 234.928,-626.5 234.928,-626.5 54.372,-626.5 54.372,-626.5 48.372,-626.5 42.372,-620.5 42.372,-614.5 42.372,-614.5 42.372,-384.5 42.372,-384.5 42.372,-378.5 48.372,-372.5 54.372,-372.5"/>
<text text-anchor="middle" x="144.65" y="-611.3" font-family="Times,serif" font-size="14.00">User</text>
<polyline fill="none" stroke="black" points="42.372,-604.5 246.928,-604.5 "/>
<text text-anchor="start" x="50.372" y="-589.3" font-family="Times,serif" font-size="14.00">id :integer</text>
<text text-anchor="start" x="50.372" y="-575.3" font-family="Times,serif" font-size="14.00">email :string</text>
<text text-anchor="start" x="50.372" y="-561.3" font-family="Times,serif" font-size="14.00">encrypted_password :string</text>
<text text-anchor="start" x="50.372" y="-547.3" font-family="Times,serif" font-size="14.00">reset_password_token :string</text>
<text text-anchor="start" x="50.372" y="-533.3" font-family="Times,serif" font-size="14.00">reset_password_sent_at :datetime</text>
<text text-anchor="start" x="50.372" y="-519.3" font-family="Times,serif" font-size="14.00">remember_created_at :datetime</text>
<text text-anchor="start" x="50.372" y="-505.3" font-family="Times,serif" font-size="14.00">sign_in_count :integer</text>
<text text-anchor="start" x="50.372" y="-491.3" font-family="Times,serif" font-size="14.00">current_sign_in_at :datetime</text>
<text text-anchor="start" x="50.372" y="-477.3" font-family="Times,serif" font-size="14.00">last_sign_in_at :datetime</text>
<text text-anchor="start" x="50.372" y="-463.3" font-family="Times,serif" font-size="14.00">current_sign_in_ip :string</text>
<text text-anchor="start" x="50.372" y="-449.3" font-family="Times,serif" font-size="14.00">last_sign_in_ip :string</text>
<text text-anchor="start" x="50.372" y="-435.3" font-family="Times,serif" font-size="14.00">role :string</text>
<text text-anchor="start" x="50.372" y="-421.3" font-family="Times,serif" font-size="14.00">photo :string</text>
<text text-anchor="start" x="50.372" y="-407.3" font-family="Times,serif" font-size="14.00">dob :date</text>
<text text-anchor="start" x="50.372" y="-393.3" font-family="Times,serif" font-size="14.00">created_at :datetime</text>
<text text-anchor="start" x="50.372" y="-379.3" font-family="Times,serif" font-size="14.00">updated_at :datetime</text>
</g>
<!-- User&#45;&gt;Comment -->
<g id="edge13" class="edge"><title>User&#45;&gt;Comment</title>
<path fill="none" stroke="#f492f5" d="M144.65,-364.286C144.65,-289.123 144.65,-198.725 144.65,-138.666"/>
<ellipse fill="none" stroke="#f492f5" cx="144.65" cy="-368.415" rx="4" ry="4"/>
<polygon fill="#f492f5" stroke="#f492f5" points="144.65,-138.556 149.15,-128.556 144.65,-133.556 144.65,-128.556 144.65,-128.556 144.65,-128.556 144.65,-133.556 140.15,-128.556 144.65,-138.556 144.65,-138.556"/>
</g>
<!-- User&#45;&gt;Run -->
<g id="edge12" class="edge"><title>User&#45;&gt;Run</title>
<path fill="none" stroke="#34be59" d="M217.011,-364.91C220.717,-358.069 224.39,-351.287 227.982,-344.656"/>
<ellipse fill="none" stroke="#34be59" cx="214.981" cy="-368.657" rx="4.00002" ry="4.00002"/>
<polygon fill="#34be59" stroke="#34be59" points="228.062,-344.508 236.782,-337.858 230.444,-340.111 232.825,-335.715 232.825,-335.715 232.825,-335.715 230.444,-340.111 228.868,-333.571 228.062,-344.508 228.062,-344.508"/>
</g>
<!-- ActiveRecord::Base -->
<g id="node9" class="node"><title>ActiveRecord::Base</title>
<ellipse fill="none" stroke="black" cx="312.65" cy="-822.5" rx="81.1422" ry="18"/>
<text text-anchor="middle" x="312.65" y="-818.3" font-family="Times,serif" font-size="14.00">ActiveRecord::Base</text>
</g>
<!-- ActiveRecord::Base&#45;&gt;Comment -->
<g id="edge1" class="edge"><title>ActiveRecord::Base&#45;&gt;Comment</title>
<path fill="none" stroke="black" d="M282.858,-805.438C216.665,-769.061 61.0366,-679.477 33.6498,-627 -53.3355,-460.323 51.9301,-232.727 110.496,-128.62"/>
</g>
<!-- ActiveRecord::Base&#45;&gt;Country -->
<g id="edge3" class="edge"><title>ActiveRecord::Base&#45;&gt;Country</title>
<path fill="none" stroke="black" d="M326.667,-804.679C338.745,-790.186 356.698,-768.642 372.634,-749.519"/>
</g>
<!-- ActiveRecord::Base&#45;&gt;Marker -->
<g id="edge4" class="edge"><title>ActiveRecord::Base&#45;&gt;Marker</title>
<path fill="none" stroke="black" d="M385.539,-814.433C428.142,-806.181 478.852,-788.371 506.65,-750 655.587,-544.415 599.07,-420.772 521.65,-179 517.632,-166.453 511.534,-154.125 504.504,-142.56"/>
</g>
<!-- ActiveRecord::Base&#45;&gt;Resort -->
<g id="edge6" class="edge"><title>ActiveRecord::Base&#45;&gt;Resort</title>
<path fill="none" stroke="black" d="M314.086,-804.287C316.661,-775.086 322.651,-714.039 331.65,-663 337.46,-630.045 345.763,-593.748 353.126,-563.834"/>
</g>
<!-- ActiveRecord::Base&#45;&gt;Run -->
<g id="edge9" class="edge"><title>ActiveRecord::Base&#45;&gt;Run</title>
<path fill="none" stroke="black" d="M310.708,-804.351C306.932,-770.491 298.545,-692.638 293.65,-627 286.157,-526.544 280.701,-410.46 277.606,-335.85"/>
</g>
<!-- ActiveRecord::Base&#45;&gt;Segment -->
<g id="edge11" class="edge"><title>ActiveRecord::Base&#45;&gt;Segment</title>
<path fill="none" stroke="black" d="M378.867,-811.999C416.397,-802.852 460.378,-784.954 483.65,-750 532.265,-676.979 478.652,-405.731 455.362,-300.554"/>
</g>
<!-- ActiveRecord::Base&#45;&gt;User -->
<g id="edge14" class="edge"><title>ActiveRecord::Base&#45;&gt;User</title>
<path fill="none" stroke="black" d="M298.847,-804.513C287.752,-790.415 272.173,-769.577 260.65,-750 237.752,-711.097 215.952,-666.918 197.56,-626.658"/>
</g>
</g>
</svg>
