<?xml version="1.0" encoding="UTF-8" standalone="no"?>
<!DOCTYPE svg PUBLIC "-//W3C//DTD SVG 1.1//EN"
 "http://www.w3.org/Graphics/SVG/1.1/DTD/svg11.dtd">
<!-- Generated by graphviz version 2.38.0 (20140413.2041)
 -->
<!-- Title: models_diagram Pages: 1 -->
<svg width="637pt" height="867pt"
 viewBox="0.00 0.00 637.00 867.00" xmlns="http://www.w3.org/2000/svg" xmlns:xlink="http://www.w3.org/1999/xlink">
<g id="graph0" class="graph" transform="scale(1 1) rotate(0) translate(4 863)">
<title>models_diagram</title>
<polygon fill="white" stroke="none" points="-4,4 -4,-863 633.003,-863 633.003,4 -4,4"/>
<!-- _diagram_info -->
<g id="node1" class="node"><title>_diagram_info</title>
<text text-anchor="start" x="8" y="-844.6" font-family="Times,serif" font-size="13.00">Models diagram</text>
<text text-anchor="start" x="8" y="-831.6" font-family="Times,serif" font-size="13.00">Date: Sep 03 2014 &#45; 19:15</text>
<text text-anchor="start" x="8" y="-818.6" font-family="Times,serif" font-size="13.00">Migration version: 20140903152347</text>
<text text-anchor="start" x="8" y="-805.6" font-family="Times,serif" font-size="13.00">Generated by RailRoady 1.1.1</text>
<text text-anchor="start" x="8" y="-792.6" font-family="Times,serif" font-size="13.00">http://railroady.prestonlee.com</text>
</g>
<!-- Comment -->
<g id="node2" class="node"><title>Comment</title>
<path fill="none" stroke="black" d="M429.182,-14.5C429.182,-14.5 538.193,-14.5 538.193,-14.5 544.193,-14.5 550.193,-20.5 550.193,-26.5 550.193,-26.5 550.193,-116.5 550.193,-116.5 550.193,-122.5 544.193,-128.5 538.193,-128.5 538.193,-128.5 429.182,-128.5 429.182,-128.5 423.182,-128.5 417.182,-122.5 417.182,-116.5 417.182,-116.5 417.182,-26.5 417.182,-26.5 417.182,-20.5 423.182,-14.5 429.182,-14.5"/>
<text text-anchor="middle" x="483.688" y="-113.3" font-family="Times,serif" font-size="14.00">Comment</text>
<polyline fill="none" stroke="black" points="417.182,-106.5 550.193,-106.5 "/>
<text text-anchor="start" x="425.182" y="-91.3" font-family="Times,serif" font-size="14.00">id :integer</text>
<text text-anchor="start" x="425.182" y="-77.3" font-family="Times,serif" font-size="14.00">content :string</text>
<text text-anchor="start" x="425.182" y="-63.3" font-family="Times,serif" font-size="14.00">user_id :integer</text>
<text text-anchor="start" x="425.182" y="-49.3" font-family="Times,serif" font-size="14.00">run_id :integer</text>
<text text-anchor="start" x="425.182" y="-35.3" font-family="Times,serif" font-size="14.00">created_at :datetime</text>
<text text-anchor="start" x="425.182" y="-21.3" font-family="Times,serif" font-size="14.00">updated_at :datetime</text>
</g>
<!-- Country -->
<g id="node3" class="node"><title>Country</title>
<path fill="none" stroke="black" d="M204.182,-663.5C204.182,-663.5 313.193,-663.5 313.193,-663.5 319.193,-663.5 325.193,-669.5 325.193,-675.5 325.193,-675.5 325.193,-737.5 325.193,-737.5 325.193,-743.5 319.193,-749.5 313.193,-749.5 313.193,-749.5 204.182,-749.5 204.182,-749.5 198.182,-749.5 192.182,-743.5 192.182,-737.5 192.182,-737.5 192.182,-675.5 192.182,-675.5 192.182,-669.5 198.182,-663.5 204.182,-663.5"/>
<text text-anchor="middle" x="258.688" y="-734.3" font-family="Times,serif" font-size="14.00">Country</text>
<polyline fill="none" stroke="black" points="192.182,-727.5 325.193,-727.5 "/>
<text text-anchor="start" x="200.182" y="-712.3" font-family="Times,serif" font-size="14.00">id :integer</text>
<text text-anchor="start" x="200.182" y="-698.3" font-family="Times,serif" font-size="14.00">name :string</text>
<text text-anchor="start" x="200.182" y="-684.3" font-family="Times,serif" font-size="14.00">created_at :datetime</text>
<text text-anchor="start" x="200.182" y="-670.3" font-family="Times,serif" font-size="14.00">updated_at :datetime</text>
</g>
<!-- Resort -->
<g id="node5" class="node"><title>Resort</title>
<path fill="none" stroke="black" d="M204.182,-435.5C204.182,-435.5 313.193,-435.5 313.193,-435.5 319.193,-435.5 325.193,-441.5 325.193,-447.5 325.193,-447.5 325.193,-551.5 325.193,-551.5 325.193,-557.5 319.193,-563.5 313.193,-563.5 313.193,-563.5 204.182,-563.5 204.182,-563.5 198.182,-563.5 192.182,-557.5 192.182,-551.5 192.182,-551.5 192.182,-447.5 192.182,-447.5 192.182,-441.5 198.182,-435.5 204.182,-435.5"/>
<text text-anchor="middle" x="258.688" y="-548.3" font-family="Times,serif" font-size="14.00">Resort</text>
<polyline fill="none" stroke="black" points="192.182,-541.5 325.193,-541.5 "/>
<text text-anchor="start" x="200.182" y="-526.3" font-family="Times,serif" font-size="14.00">id :integer</text>
<text text-anchor="start" x="200.182" y="-512.3" font-family="Times,serif" font-size="14.00">name :string</text>
<text text-anchor="start" x="200.182" y="-498.3" font-family="Times,serif" font-size="14.00">description :text</text>
<text text-anchor="start" x="200.182" y="-484.3" font-family="Times,serif" font-size="14.00">country_id :integer</text>
<text text-anchor="start" x="200.182" y="-470.3" font-family="Times,serif" font-size="14.00">image :text</text>
<text text-anchor="start" x="200.182" y="-456.3" font-family="Times,serif" font-size="14.00">created_at :datetime</text>
<text text-anchor="start" x="200.182" y="-442.3" font-family="Times,serif" font-size="14.00">updated_at :datetime</text>
</g>
<!-- Country&#45;&gt;Resort -->
<g id="edge2" class="edge"><title>Country&#45;&gt;Resort</title>
<path fill="none" stroke="#1a582d" d="M258.688,-654.7C258.688,-630.258 258.688,-600.504 258.688,-573.677"/>
<ellipse fill="none" stroke="#1a582d" cx="258.688" cy="-659.024" rx="4" ry="4"/>
<polygon fill="#1a582d" stroke="#1a582d" points="258.688,-573.555 263.188,-563.555 258.688,-568.555 258.688,-563.555 258.688,-563.555 258.688,-563.555 258.688,-568.555 254.188,-563.555 258.688,-573.555 258.688,-573.555"/>
</g>
<!-- Marker -->
<g id="node4" class="node"><title>Marker</title>
<path fill="none" stroke="black" d="M174.182,-0.5C174.182,-0.5 283.193,-0.5 283.193,-0.5 289.193,-0.5 295.193,-6.5 295.193,-12.5 295.193,-12.5 295.193,-130.5 295.193,-130.5 295.193,-136.5 289.193,-142.5 283.193,-142.5 283.193,-142.5 174.182,-142.5 174.182,-142.5 168.182,-142.5 162.182,-136.5 162.182,-130.5 162.182,-130.5 162.182,-12.5 162.182,-12.5 162.182,-6.5 168.182,-0.5 174.182,-0.5"/>
<text text-anchor="middle" x="228.688" y="-127.3" font-family="Times,serif" font-size="14.00">Marker</text>
<polyline fill="none" stroke="black" points="162.182,-120.5 295.193,-120.5 "/>
<text text-anchor="start" x="170.182" y="-105.3" font-family="Times,serif" font-size="14.00">id :integer</text>
<text text-anchor="start" x="170.182" y="-91.3" font-family="Times,serif" font-size="14.00">latitude :decimal</text>
<text text-anchor="start" x="170.182" y="-77.3" font-family="Times,serif" font-size="14.00">longitude :decimal</text>
<text text-anchor="start" x="170.182" y="-63.3" font-family="Times,serif" font-size="14.00">elevation :decimal</text>
<text text-anchor="start" x="170.182" y="-49.3" font-family="Times,serif" font-size="14.00">datetime :datetime</text>
<text text-anchor="start" x="170.182" y="-35.3" font-family="Times,serif" font-size="14.00">run_id :integer</text>
<text text-anchor="start" x="170.182" y="-21.3" font-family="Times,serif" font-size="14.00">created_at :datetime</text>
<text text-anchor="start" x="170.182" y="-7.3" font-family="Times,serif" font-size="14.00">updated_at :datetime</text>
</g>
<!-- Run -->
<g id="node6" class="node"><title>Run</title>
<path fill="none" stroke="black" d="M299.182,-179.5C299.182,-179.5 408.193,-179.5 408.193,-179.5 414.193,-179.5 420.193,-185.5 420.193,-191.5 420.193,-191.5 420.193,-323.5 420.193,-323.5 420.193,-329.5 414.193,-335.5 408.193,-335.5 408.193,-335.5 299.182,-335.5 299.182,-335.5 293.182,-335.5 287.182,-329.5 287.182,-323.5 287.182,-323.5 287.182,-191.5 287.182,-191.5 287.182,-185.5 293.182,-179.5 299.182,-179.5"/>
<text text-anchor="middle" x="353.688" y="-320.3" font-family="Times,serif" font-size="14.00">Run</text>
<polyline fill="none" stroke="black" points="287.182,-313.5 420.193,-313.5 "/>
<text text-anchor="start" x="295.182" y="-298.3" font-family="Times,serif" font-size="14.00">id :integer</text>
<text text-anchor="start" x="295.182" y="-284.3" font-family="Times,serif" font-size="14.00">name :string</text>
<text text-anchor="start" x="295.182" y="-270.3" font-family="Times,serif" font-size="14.00">description :text</text>
<text text-anchor="start" x="295.182" y="-256.3" font-family="Times,serif" font-size="14.00">picture :text</text>
<text text-anchor="start" x="295.182" y="-242.3" font-family="Times,serif" font-size="14.00">video :text</text>
<text text-anchor="start" x="295.182" y="-228.3" font-family="Times,serif" font-size="14.00">resort_id :integer</text>
<text text-anchor="start" x="295.182" y="-214.3" font-family="Times,serif" font-size="14.00">rating :float</text>
<text text-anchor="start" x="295.182" y="-200.3" font-family="Times,serif" font-size="14.00">created_at :datetime</text>
<text text-anchor="start" x="295.182" y="-186.3" font-family="Times,serif" font-size="14.00">updated_at :datetime</text>
</g>
<!-- Resort&#45;&gt;Run -->
<g id="edge5" class="edge"><title>Resort&#45;&gt;Run</title>
<path fill="none" stroke="#57c825" d="M286.673,-427.8C296.922,-401.909 308.638,-372.31 319.377,-345.18"/>
<ellipse fill="none" stroke="#57c825" cx="285.12" cy="-431.724" rx="4.00001" ry="4.00001"/>
<polygon fill="#57c825" stroke="#57c825" points="319.45,-344.995 327.315,-337.353 321.291,-340.346 323.131,-335.697 323.131,-335.697 323.131,-335.697 321.291,-340.346 318.947,-334.04 319.45,-344.995 319.45,-344.995"/>
</g>
<!-- Run&#45;&gt;Comment -->
<g id="edge8" class="edge"><title>Run&#45;&gt;Comment</title>
<path fill="none" stroke="#217ea7" d="M413.066,-172.457C421.524,-160.486 430.11,-148.334 438.245,-136.819"/>
<ellipse fill="none" stroke="#217ea7" cx="410.563" cy="-176" rx="4.00002" ry="4.00002"/>
<polygon fill="#217ea7" stroke="#217ea7" points="438.31,-136.727 447.756,-131.156 441.195,-132.643 444.08,-128.56 444.08,-128.56 444.08,-128.56 441.195,-132.643 440.405,-125.963 438.31,-136.727 438.31,-136.727"/>
</g>
<!-- Run&#45;&gt;Marker -->
<g id="edge7" class="edge"><title>Run&#45;&gt;Marker</title>
<path fill="none" stroke="#1b8468" d="M296.538,-172.376C291.66,-165.195 286.737,-157.949 281.891,-150.815"/>
<ellipse fill="none" stroke="#1b8468" cx="298.972" cy="-175.958" rx="4.00002" ry="4.00002"/>
<polygon fill="#1b8468" stroke="#1b8468" points="281.864,-150.775 279.967,-139.975 279.054,-146.639 276.244,-142.503 276.244,-142.503 276.244,-142.503 279.054,-146.639 272.522,-145.032 281.864,-150.775 281.864,-150.775"/>
</g>
<!-- User -->
<g id="node7" class="node"><title>User</title>
<path fill="none" stroke="black" d="M393.41,-372.5C393.41,-372.5 573.966,-372.5 573.966,-372.5 579.966,-372.5 585.966,-378.5 585.966,-384.5 585.966,-384.5 585.966,-614.5 585.966,-614.5 585.966,-620.5 579.966,-626.5 573.966,-626.5 573.966,-626.5 393.41,-626.5 393.41,-626.5 387.41,-626.5 381.41,-620.5 381.41,-614.5 381.41,-614.5 381.41,-384.5 381.41,-384.5 381.41,-378.5 387.41,-372.5 393.41,-372.5"/>
<text text-anchor="middle" x="483.688" y="-611.3" font-family="Times,serif" font-size="14.00">User</text>
<polyline fill="none" stroke="black" points="381.41,-604.5 585.966,-604.5 "/>
<text text-anchor="start" x="389.41" y="-589.3" font-family="Times,serif" font-size="14.00">id :integer</text>
<text text-anchor="start" x="389.41" y="-575.3" font-family="Times,serif" font-size="14.00">email :string</text>
<text text-anchor="start" x="389.41" y="-561.3" font-family="Times,serif" font-size="14.00">encrypted_password :string</text>
<text text-anchor="start" x="389.41" y="-547.3" font-family="Times,serif" font-size="14.00">reset_password_token :string</text>
<text text-anchor="start" x="389.41" y="-533.3" font-family="Times,serif" font-size="14.00">reset_password_sent_at :datetime</text>
<text text-anchor="start" x="389.41" y="-519.3" font-family="Times,serif" font-size="14.00">remember_created_at :datetime</text>
<text text-anchor="start" x="389.41" y="-505.3" font-family="Times,serif" font-size="14.00">sign_in_count :integer</text>
<text text-anchor="start" x="389.41" y="-491.3" font-family="Times,serif" font-size="14.00">current_sign_in_at :datetime</text>
<text text-anchor="start" x="389.41" y="-477.3" font-family="Times,serif" font-size="14.00">last_sign_in_at :datetime</text>
<text text-anchor="start" x="389.41" y="-463.3" font-family="Times,serif" font-size="14.00">current_sign_in_ip :string</text>
<text text-anchor="start" x="389.41" y="-449.3" font-family="Times,serif" font-size="14.00">last_sign_in_ip :string</text>
<text text-anchor="start" x="389.41" y="-435.3" font-family="Times,serif" font-size="14.00">role :string</text>
<text text-anchor="start" x="389.41" y="-421.3" font-family="Times,serif" font-size="14.00">photo :string</text>
<text text-anchor="start" x="389.41" y="-407.3" font-family="Times,serif" font-size="14.00">dob :date</text>
<text text-anchor="start" x="389.41" y="-393.3" font-family="Times,serif" font-size="14.00">created_at :datetime</text>
<text text-anchor="start" x="389.41" y="-379.3" font-family="Times,serif" font-size="14.00">updated_at :datetime</text>
</g>
<!-- User&#45;&gt;Comment -->
<g id="edge11" class="edge"><title>User&#45;&gt;Comment</title>
<path fill="none" stroke="#1580cb" d="M483.688,-364.286C483.688,-289.123 483.688,-198.725 483.688,-138.666"/>
<ellipse fill="none" stroke="#1580cb" cx="483.688" cy="-368.415" rx="4" ry="4"/>
<polygon fill="#1580cb" stroke="#1580cb" points="483.688,-138.556 488.188,-128.556 483.688,-133.556 483.688,-128.556 483.688,-128.556 483.688,-128.556 483.688,-133.556 479.188,-128.556 483.688,-138.556 483.688,-138.556"/>
</g>
<!-- User&#45;&gt;Run -->
<g id="edge10" class="edge"><title>User&#45;&gt;Run</title>
<path fill="none" stroke="#c2102a" d="M411.327,-364.91C407.621,-358.069 403.948,-351.287 400.356,-344.656"/>
<ellipse fill="none" stroke="#c2102a" cx="413.356" cy="-368.657" rx="4.00002" ry="4.00002"/>
<polygon fill="#c2102a" stroke="#c2102a" points="400.275,-344.508 399.469,-333.571 397.894,-340.111 395.512,-335.715 395.512,-335.715 395.512,-335.715 397.894,-340.111 391.556,-337.858 400.275,-344.508 400.275,-344.508"/>
</g>
<!-- ActiveRecord::Base -->
<g id="node8" class="node"><title>ActiveRecord::Base</title>
<ellipse fill="none" stroke="black" cx="306.688" cy="-822.5" rx="81.1422" ry="18"/>
<text text-anchor="middle" x="306.688" y="-818.3" font-family="Times,serif" font-size="14.00">ActiveRecord::Base</text>
</g>
<!-- ActiveRecord::Base&#45;&gt;Comment -->
<g id="edge1" class="edge"><title>ActiveRecord::Base&#45;&gt;Comment</title>
<path fill="none" stroke="black" d="M350.128,-807.162C416.948,-782.467 542.668,-724.902 594.688,-627 682.905,-460.972 577.028,-233.054 518.076,-128.744"/>
</g>
<!-- ActiveRecord::Base&#45;&gt;Country -->
<g id="edge3" class="edge"><title>ActiveRecord::Base&#45;&gt;Country</title>
<path fill="none" stroke="black" d="M299.398,-804.186C293.313,-789.735 284.384,-768.529 276.438,-749.656"/>
</g>
<!-- ActiveRecord::Base&#45;&gt;Marker -->
<g id="edge4" class="edge"><title>ActiveRecord::Base&#45;&gt;Marker</title>
<path fill="none" stroke="black" d="M266.644,-806.808C228.843,-792.029 176.27,-768.8 164.688,-750 45.858,-557.123 140.947,-273.083 196.162,-142.657"/>
</g>
<!-- ActiveRecord::Base&#45;&gt;Resort -->
<g id="edge6" class="edge"><title>ActiveRecord::Base&#45;&gt;Resort</title>
<path fill="none" stroke="black" d="M259.769,-807.663C232.044,-796.799 199.221,-778.618 182.688,-750 148.824,-691.384 180.431,-616.141 212.59,-563.68"/>
</g>
<!-- ActiveRecord::Base&#45;&gt;Run -->
<g id="edge9" class="edge"><title>ActiveRecord::Base&#45;&gt;Run</title>
<path fill="none" stroke="black" d="M315.279,-804.373C321.925,-790.193 330.653,-769.313 334.688,-750 364.767,-606.018 362.97,-433.276 358.575,-335.662"/>
</g>
<!-- ActiveRecord::Base&#45;&gt;User -->
<g id="edge12" class="edge"><title>ActiveRecord::Base&#45;&gt;User</title>
<path fill="none" stroke="black" d="M323.399,-804.629C336.539,-790.763 354.729,-770.184 367.688,-750 392.27,-711.712 414.618,-667.376 432.992,-626.793"/>
</g>
</g>
</svg>
